<svg width="512" height="512" viewBox="0 0 512 512" fill="none" xmlns="http://www.w3.org/2000/svg">
<rect width="512" height="512" fill="#0053A6"/>
<path d="M378.375 148.167H188.792C173.834 148.167 161.708 160.292 161.708 175.25C161.708 190.208 173.834 202.333 188.792 202.333H378.375V378.375C378.375 385.854 372.312 391.917 364.833 391.917H188.792C158.876 391.917 134.625 367.665 134.625 337.75V175.25C134.625 145.335 158.876 121.083 188.792 121.083H364.833C372.312 121.083 378.375 127.146 378.375 134.625V148.167ZM161.708 337.75C161.708 352.708 173.834 364.833 188.792 364.833H351.292V229.417H188.792C178.926 229.417 169.676 226.779 161.708 222.17V337.75ZM364.833 188.792H188.792C181.313 188.792 175.25 182.729 175.25 175.25C175.25 167.771 181.313 161.708 188.792 161.708H364.833V188.792Z" fill="#FCFCFC"/>
</svg>
